<mxfile>
    <diagram id="aSdYf6prPh5pmuAx1HA3" name="classes">
        <mxGraphModel dx="734" dy="319" grid="1" gridSize="10" guides="1" tooltips="1" connect="1" arrows="1" fold="1" page="1" pageScale="1" pageWidth="827" pageHeight="1169" math="0" shadow="0">
            <root>
                <mxCell id="0"/>
                <mxCell id="1" parent="0"/>
                <mxCell id="lPi06wtWU1ARIutCt8VS-1" value="User" style="swimlane;fontStyle=1;align=center;verticalAlign=top;childLayout=stackLayout;horizontal=1;startSize=26;horizontalStack=0;resizeParent=1;resizeParentMax=0;resizeLast=0;collapsible=1;marginBottom=0;" parent="1" vertex="1">
                    <mxGeometry x="240" y="43" width="160" height="118" as="geometry"/>
                </mxCell>
                <mxCell id="lPi06wtWU1ARIutCt8VS-2" value="- id: number&#10;- peronId: number&#10;+ email: string&#10;+ login: string&#10;+ password: string" style="text;strokeColor=none;fillColor=none;align=left;verticalAlign=top;spacingLeft=4;spacingRight=4;overflow=hidden;rotatable=0;points=[[0,0.5],[1,0.5]];portConstraint=eastwest;" parent="lPi06wtWU1ARIutCt8VS-1" vertex="1">
                    <mxGeometry y="26" width="160" height="84" as="geometry"/>
                </mxCell>
                <mxCell id="lPi06wtWU1ARIutCt8VS-3" value="" style="line;strokeWidth=1;fillColor=none;align=left;verticalAlign=middle;spacingTop=-1;spacingLeft=3;spacingRight=3;rotatable=0;labelPosition=right;points=[];portConstraint=eastwest;" parent="lPi06wtWU1ARIutCt8VS-1" vertex="1">
                    <mxGeometry y="110" width="160" height="8" as="geometry"/>
                </mxCell>
                <mxCell id="lPi06wtWU1ARIutCt8VS-5" value="Book" style="swimlane;fontStyle=1;align=center;verticalAlign=top;childLayout=stackLayout;horizontal=1;startSize=26;horizontalStack=0;resizeParent=1;resizeParentMax=0;resizeLast=0;collapsible=1;marginBottom=0;" parent="1" vertex="1">
                    <mxGeometry x="640" y="43" width="160" height="118" as="geometry"/>
                </mxCell>
                <mxCell id="lPi06wtWU1ARIutCt8VS-6" value="- id: number&#10;- authorId: number&#10;+ name: string&#10;+ link: string&#10;+ description: string" style="text;strokeColor=none;fillColor=none;align=left;verticalAlign=top;spacingLeft=4;spacingRight=4;overflow=hidden;rotatable=0;points=[[0,0.5],[1,0.5]];portConstraint=eastwest;" parent="lPi06wtWU1ARIutCt8VS-5" vertex="1">
                    <mxGeometry y="26" width="160" height="84" as="geometry"/>
                </mxCell>
                <mxCell id="lPi06wtWU1ARIutCt8VS-7" value="" style="line;strokeWidth=1;fillColor=none;align=left;verticalAlign=middle;spacingTop=-1;spacingLeft=3;spacingRight=3;rotatable=0;labelPosition=right;points=[];portConstraint=eastwest;" parent="lPi06wtWU1ARIutCt8VS-5" vertex="1">
                    <mxGeometry y="110" width="160" height="8" as="geometry"/>
                </mxCell>
                <mxCell id="lPi06wtWU1ARIutCt8VS-9" value="Mark" style="swimlane;fontStyle=1;align=center;verticalAlign=top;childLayout=stackLayout;horizontal=1;startSize=26;horizontalStack=0;resizeParent=1;resizeParentMax=0;resizeLast=0;collapsible=1;marginBottom=0;" parent="1" vertex="1">
                    <mxGeometry x="40" y="43" width="160" height="112" as="geometry"/>
                </mxCell>
                <mxCell id="lPi06wtWU1ARIutCt8VS-10" value="- id: number&#10;- bookId: number&#10;- userId: number&#10;+ count: number&#10;+ description: string" style="text;strokeColor=none;fillColor=none;align=left;verticalAlign=top;spacingLeft=4;spacingRight=4;overflow=hidden;rotatable=0;points=[[0,0.5],[1,0.5]];portConstraint=eastwest;" parent="lPi06wtWU1ARIutCt8VS-9" vertex="1">
                    <mxGeometry y="26" width="160" height="78" as="geometry"/>
                </mxCell>
                <mxCell id="lPi06wtWU1ARIutCt8VS-11" value="" style="line;strokeWidth=1;fillColor=none;align=left;verticalAlign=middle;spacingTop=-1;spacingLeft=3;spacingRight=3;rotatable=0;labelPosition=right;points=[];portConstraint=eastwest;" parent="lPi06wtWU1ARIutCt8VS-9" vertex="1">
                    <mxGeometry y="104" width="160" height="8" as="geometry"/>
                </mxCell>
                <mxCell id="lPi06wtWU1ARIutCt8VS-13" value="List" style="swimlane;fontStyle=1;align=center;verticalAlign=top;childLayout=stackLayout;horizontal=1;startSize=26;horizontalStack=0;resizeParent=1;resizeParentMax=0;resizeLast=0;collapsible=1;marginBottom=0;" parent="1" vertex="1">
                    <mxGeometry x="440" y="310" width="160" height="88" as="geometry"/>
                </mxCell>
                <mxCell id="lPi06wtWU1ARIutCt8VS-14" value="- id: UUID&#10;+ name: string&#10;+ public: boolean" style="text;strokeColor=none;fillColor=none;align=left;verticalAlign=top;spacingLeft=4;spacingRight=4;overflow=hidden;rotatable=0;points=[[0,0.5],[1,0.5]];portConstraint=eastwest;" parent="lPi06wtWU1ARIutCt8VS-13" vertex="1">
                    <mxGeometry y="26" width="160" height="54" as="geometry"/>
                </mxCell>
                <mxCell id="lPi06wtWU1ARIutCt8VS-15" value="" style="line;strokeWidth=1;fillColor=none;align=left;verticalAlign=middle;spacingTop=-1;spacingLeft=3;spacingRight=3;rotatable=0;labelPosition=right;points=[];portConstraint=eastwest;" parent="lPi06wtWU1ARIutCt8VS-13" vertex="1">
                    <mxGeometry y="80" width="160" height="8" as="geometry"/>
                </mxCell>
                <mxCell id="lPi06wtWU1ARIutCt8VS-41" style="edgeStyle=orthogonalEdgeStyle;rounded=0;orthogonalLoop=1;jettySize=auto;html=1;exitX=0.5;exitY=0;exitDx=0;exitDy=0;entryX=0.5;entryY=1;entryDx=0;entryDy=0;" parent="1" source="lPi06wtWU1ARIutCt8VS-21" target="lPi06wtWU1ARIutCt8VS-1" edge="1">
                    <mxGeometry relative="1" as="geometry"/>
                </mxCell>
                <mxCell id="lPi06wtWU1ARIutCt8VS-21" value="UserList" style="swimlane;fontStyle=1;align=center;verticalAlign=top;childLayout=stackLayout;horizontal=1;startSize=26;horizontalStack=0;resizeParent=1;resizeParentMax=0;resizeLast=0;collapsible=1;marginBottom=0;" parent="1" vertex="1">
                    <mxGeometry x="240" y="260" width="160" height="78" as="geometry"/>
                </mxCell>
                <mxCell id="lPi06wtWU1ARIutCt8VS-22" value="- userId: number&#10;- listId: number" style="text;strokeColor=none;fillColor=none;align=left;verticalAlign=top;spacingLeft=4;spacingRight=4;overflow=hidden;rotatable=0;points=[[0,0.5],[1,0.5]];portConstraint=eastwest;" parent="lPi06wtWU1ARIutCt8VS-21" vertex="1">
                    <mxGeometry y="26" width="160" height="44" as="geometry"/>
                </mxCell>
                <mxCell id="lPi06wtWU1ARIutCt8VS-23" value="" style="line;strokeWidth=1;fillColor=none;align=left;verticalAlign=middle;spacingTop=-1;spacingLeft=3;spacingRight=3;rotatable=0;labelPosition=right;points=[];portConstraint=eastwest;" parent="lPi06wtWU1ARIutCt8VS-21" vertex="1">
                    <mxGeometry y="70" width="160" height="8" as="geometry"/>
                </mxCell>
                <mxCell id="lPi06wtWU1ARIutCt8VS-45" style="edgeStyle=orthogonalEdgeStyle;rounded=0;orthogonalLoop=1;jettySize=auto;html=1;entryX=0.5;entryY=0;entryDx=0;entryDy=0;exitX=0.5;exitY=1;exitDx=0;exitDy=0;" parent="1" source="lPi06wtWU1ARIutCt8VS-25" target="lPi06wtWU1ARIutCt8VS-13" edge="1">
                    <mxGeometry relative="1" as="geometry"/>
                </mxCell>
                <mxCell id="lPi06wtWU1ARIutCt8VS-46" style="edgeStyle=orthogonalEdgeStyle;rounded=0;orthogonalLoop=1;jettySize=auto;html=1;exitX=0.5;exitY=0;exitDx=0;exitDy=0;entryX=0.25;entryY=1;entryDx=0;entryDy=0;" parent="1" source="lPi06wtWU1ARIutCt8VS-25" target="lPi06wtWU1ARIutCt8VS-5" edge="1">
                    <mxGeometry relative="1" as="geometry"/>
                </mxCell>
                <mxCell id="lPi06wtWU1ARIutCt8VS-25" value="BookList" style="swimlane;fontStyle=1;align=center;verticalAlign=top;childLayout=stackLayout;horizontal=1;startSize=26;horizontalStack=0;resizeParent=1;resizeParentMax=0;resizeLast=0;collapsible=1;marginBottom=0;" parent="1" vertex="1">
                    <mxGeometry x="440" y="210" width="160" height="68" as="geometry"/>
                </mxCell>
                <mxCell id="lPi06wtWU1ARIutCt8VS-26" value="- bookId: number&#10;- listId: number" style="text;strokeColor=none;fillColor=none;align=left;verticalAlign=top;spacingLeft=4;spacingRight=4;overflow=hidden;rotatable=0;points=[[0,0.5],[1,0.5]];portConstraint=eastwest;" parent="lPi06wtWU1ARIutCt8VS-25" vertex="1">
                    <mxGeometry y="26" width="160" height="34" as="geometry"/>
                </mxCell>
                <mxCell id="lPi06wtWU1ARIutCt8VS-27" value="" style="line;strokeWidth=1;fillColor=none;align=left;verticalAlign=middle;spacingTop=-1;spacingLeft=3;spacingRight=3;rotatable=0;labelPosition=right;points=[];portConstraint=eastwest;" parent="lPi06wtWU1ARIutCt8VS-25" vertex="1">
                    <mxGeometry y="60" width="160" height="8" as="geometry"/>
                </mxCell>
                <mxCell id="lPi06wtWU1ARIutCt8VS-40" style="edgeStyle=orthogonalEdgeStyle;rounded=0;orthogonalLoop=1;jettySize=auto;html=1;entryX=0.25;entryY=1;entryDx=0;entryDy=0;" parent="1" source="lPi06wtWU1ARIutCt8VS-10" target="lPi06wtWU1ARIutCt8VS-1" edge="1">
                    <mxGeometry relative="1" as="geometry">
                        <mxPoint x="200" y="234" as="sourcePoint"/>
                    </mxGeometry>
                </mxCell>
                <mxCell id="lPi06wtWU1ARIutCt8VS-44" style="edgeStyle=orthogonalEdgeStyle;rounded=0;orthogonalLoop=1;jettySize=auto;html=1;exitX=1;exitY=0.5;exitDx=0;exitDy=0;entryX=0;entryY=0.5;entryDx=0;entryDy=0;" parent="1" source="lPi06wtWU1ARIutCt8VS-22" target="lPi06wtWU1ARIutCt8VS-14" edge="1">
                    <mxGeometry relative="1" as="geometry"/>
                </mxCell>
                <mxCell id="D7wnXjcaNDBVrLnJhc5z-1" value="Person" style="swimlane;fontStyle=1;align=center;verticalAlign=top;childLayout=stackLayout;horizontal=1;startSize=26;horizontalStack=0;resizeParent=1;resizeParentMax=0;resizeLast=0;collapsible=1;marginBottom=0;" parent="1" vertex="1">
                    <mxGeometry x="440" y="42" width="160" height="108" as="geometry"/>
                </mxCell>
                <mxCell id="D7wnXjcaNDBVrLnJhc5z-2" value="- id: number&#10;+ name: string&#10;+ surname: string&#10;+ patronymic: string&#10;" style="text;strokeColor=none;fillColor=none;align=left;verticalAlign=top;spacingLeft=4;spacingRight=4;overflow=hidden;rotatable=0;points=[[0,0.5],[1,0.5]];portConstraint=eastwest;" parent="D7wnXjcaNDBVrLnJhc5z-1" vertex="1">
                    <mxGeometry y="26" width="160" height="74" as="geometry"/>
                </mxCell>
                <mxCell id="D7wnXjcaNDBVrLnJhc5z-3" value="" style="line;strokeWidth=1;fillColor=none;align=left;verticalAlign=middle;spacingTop=-1;spacingLeft=3;spacingRight=3;rotatable=0;labelPosition=right;points=[];portConstraint=eastwest;" parent="D7wnXjcaNDBVrLnJhc5z-1" vertex="1">
                    <mxGeometry y="100" width="160" height="8" as="geometry"/>
                </mxCell>
                <mxCell id="D7wnXjcaNDBVrLnJhc5z-4" value="" style="endArrow=classic;html=1;exitX=1.008;exitY=0.44;exitDx=0;exitDy=0;exitPerimeter=0;entryX=0;entryY=0.5;entryDx=0;entryDy=0;" parent="1" source="lPi06wtWU1ARIutCt8VS-2" target="D7wnXjcaNDBVrLnJhc5z-2" edge="1">
                    <mxGeometry width="50" height="50" relative="1" as="geometry">
                        <mxPoint x="440" y="104" as="sourcePoint"/>
                        <mxPoint x="420" y="90" as="targetPoint"/>
                    </mxGeometry>
                </mxCell>
                <mxCell id="D7wnXjcaNDBVrLnJhc5z-5" value="Tag" style="swimlane;fontStyle=1;align=center;verticalAlign=top;childLayout=stackLayout;horizontal=1;startSize=26;horizontalStack=0;resizeParent=1;resizeParentMax=0;resizeLast=0;collapsible=1;marginBottom=0;" parent="1" vertex="1">
                    <mxGeometry x="640" y="330" width="160" height="88" as="geometry"/>
                </mxCell>
                <mxCell id="D7wnXjcaNDBVrLnJhc5z-6" value="- id: number&#10;+ name: string&#10;+ description: string" style="text;strokeColor=none;fillColor=none;align=left;verticalAlign=top;spacingLeft=4;spacingRight=4;overflow=hidden;rotatable=0;points=[[0,0.5],[1,0.5]];portConstraint=eastwest;" parent="D7wnXjcaNDBVrLnJhc5z-5" vertex="1">
                    <mxGeometry y="26" width="160" height="54" as="geometry"/>
                </mxCell>
                <mxCell id="D7wnXjcaNDBVrLnJhc5z-7" value="" style="line;strokeWidth=1;fillColor=none;align=left;verticalAlign=middle;spacingTop=-1;spacingLeft=3;spacingRight=3;rotatable=0;labelPosition=right;points=[];portConstraint=eastwest;" parent="D7wnXjcaNDBVrLnJhc5z-5" vertex="1">
                    <mxGeometry y="80" width="160" height="8" as="geometry"/>
                </mxCell>
                <mxCell id="D7wnXjcaNDBVrLnJhc5z-8" value="BookTag" style="swimlane;fontStyle=1;align=center;verticalAlign=top;childLayout=stackLayout;horizontal=1;startSize=26;horizontalStack=0;resizeParent=1;resizeParentMax=0;resizeLast=0;collapsible=1;marginBottom=0;" parent="1" vertex="1">
                    <mxGeometry x="640" y="210" width="160" height="88" as="geometry"/>
                </mxCell>
                <mxCell id="D7wnXjcaNDBVrLnJhc5z-9" value="- bookId: number&#10;- tagId: number" style="text;strokeColor=none;fillColor=none;align=left;verticalAlign=top;spacingLeft=4;spacingRight=4;overflow=hidden;rotatable=0;points=[[0,0.5],[1,0.5]];portConstraint=eastwest;" parent="D7wnXjcaNDBVrLnJhc5z-8" vertex="1">
                    <mxGeometry y="26" width="160" height="54" as="geometry"/>
                </mxCell>
                <mxCell id="D7wnXjcaNDBVrLnJhc5z-10" value="" style="line;strokeWidth=1;fillColor=none;align=left;verticalAlign=middle;spacingTop=-1;spacingLeft=3;spacingRight=3;rotatable=0;labelPosition=right;points=[];portConstraint=eastwest;" parent="D7wnXjcaNDBVrLnJhc5z-8" vertex="1">
                    <mxGeometry y="80" width="160" height="8" as="geometry"/>
                </mxCell>
                <mxCell id="D7wnXjcaNDBVrLnJhc5z-13" value="" style="endArrow=classic;html=1;entryX=0.5;entryY=1;entryDx=0;entryDy=0;exitX=0.5;exitY=0;exitDx=0;exitDy=0;" parent="1" source="D7wnXjcaNDBVrLnJhc5z-8" target="lPi06wtWU1ARIutCt8VS-5" edge="1">
                    <mxGeometry width="50" height="50" relative="1" as="geometry">
                        <mxPoint x="520" y="260" as="sourcePoint"/>
                        <mxPoint x="570" y="210" as="targetPoint"/>
                    </mxGeometry>
                </mxCell>
                <mxCell id="D7wnXjcaNDBVrLnJhc5z-14" value="" style="endArrow=classic;html=1;entryX=0.5;entryY=0;entryDx=0;entryDy=0;exitX=0.5;exitY=1;exitDx=0;exitDy=0;" parent="1" source="D7wnXjcaNDBVrLnJhc5z-8" target="D7wnXjcaNDBVrLnJhc5z-5" edge="1">
                    <mxGeometry width="50" height="50" relative="1" as="geometry">
                        <mxPoint x="520" y="260" as="sourcePoint"/>
                        <mxPoint x="570" y="210" as="targetPoint"/>
                    </mxGeometry>
                </mxCell>
                <mxCell id="D7wnXjcaNDBVrLnJhc5z-15" value="" style="endArrow=classic;html=1;entryX=1;entryY=0.5;entryDx=0;entryDy=0;exitX=0;exitY=0.429;exitDx=0;exitDy=0;exitPerimeter=0;" parent="1" source="lPi06wtWU1ARIutCt8VS-6" target="D7wnXjcaNDBVrLnJhc5z-2" edge="1">
                    <mxGeometry width="50" height="50" relative="1" as="geometry">
                        <mxPoint x="520" y="260" as="sourcePoint"/>
                        <mxPoint x="570" y="210" as="targetPoint"/>
                    </mxGeometry>
                </mxCell>
                <mxCell id="AXU5L8JCP5Bq7LraFhwp-1" value="" style="endArrow=classic;html=1;exitX=0.5;exitY=0;exitDx=0;exitDy=0;entryX=0.5;entryY=0;entryDx=0;entryDy=0;" parent="1" source="lPi06wtWU1ARIutCt8VS-9" target="lPi06wtWU1ARIutCt8VS-5" edge="1">
                    <mxGeometry width="50" height="50" relative="1" as="geometry">
                        <mxPoint x="410" y="230" as="sourcePoint"/>
                        <mxPoint x="460" y="180" as="targetPoint"/>
                        <Array as="points">
                            <mxPoint x="120" y="10"/>
                            <mxPoint x="410" y="10"/>
                            <mxPoint x="720" y="10"/>
                        </Array>
                    </mxGeometry>
                </mxCell>
            </root>
        </mxGraphModel>
    </diagram>
    <diagram id="jOGFQzyrnlKx5A-1VcFP" name="base page">
        <mxGraphModel dx="734" dy="319" grid="1" gridSize="10" guides="1" tooltips="1" connect="1" arrows="1" fold="1" page="1" pageScale="1" pageWidth="827" pageHeight="1169" math="0" shadow="0">
            <root>
                <mxCell id="GUaNuJlXd1SZs9sNp0NW-0"/>
                <mxCell id="GUaNuJlXd1SZs9sNp0NW-1" parent="GUaNuJlXd1SZs9sNp0NW-0"/>
                <mxCell id="GUaNuJlXd1SZs9sNp0NW-2" value="" style="rounded=0;whiteSpace=wrap;html=1;" vertex="1" parent="GUaNuJlXd1SZs9sNp0NW-1">
                    <mxGeometry x="40" y="40" width="580" height="360" as="geometry"/>
                </mxCell>
                <mxCell id="GUaNuJlXd1SZs9sNp0NW-3" value="Background" style="text;html=1;strokeColor=none;fillColor=none;align=center;verticalAlign=middle;whiteSpace=wrap;rounded=0;" vertex="1" parent="GUaNuJlXd1SZs9sNp0NW-1">
                    <mxGeometry x="40" y="50" width="580" height="20" as="geometry"/>
                </mxCell>
                <mxCell id="GUaNuJlXd1SZs9sNp0NW-4" value="- отображает контентную панель" style="shape=note;whiteSpace=wrap;html=1;backgroundOutline=1;darkOpacity=0.05;fillColor=#1ba1e2;strokeColor=#006EAF;fontColor=#ffffff;" vertex="1" parent="GUaNuJlXd1SZs9sNp0NW-1">
                    <mxGeometry x="280" y="410" width="200" height="90" as="geometry"/>
                </mxCell>
                <mxCell id="GUaNuJlXd1SZs9sNp0NW-9" value="Header" style="rounded=0;whiteSpace=wrap;html=1;fillColor=#60a917;strokeColor=#2D7600;fontColor=#ffffff;" vertex="1" parent="GUaNuJlXd1SZs9sNp0NW-1">
                    <mxGeometry x="60" y="90" width="540" height="60" as="geometry"/>
                </mxCell>
                <mxCell id="GUaNuJlXd1SZs9sNp0NW-10" value="Content" style="rounded=0;whiteSpace=wrap;html=1;fillColor=#1ba1e2;strokeColor=#006EAF;fontColor=#ffffff;" vertex="1" parent="GUaNuJlXd1SZs9sNp0NW-1">
                    <mxGeometry x="60" y="170" width="540" height="130" as="geometry"/>
                </mxCell>
                <mxCell id="GUaNuJlXd1SZs9sNp0NW-11" value="Footer" style="rounded=0;whiteSpace=wrap;html=1;fillColor=#6a00ff;strokeColor=#3700CC;fontColor=#ffffff;" vertex="1" parent="GUaNuJlXd1SZs9sNp0NW-1">
                    <mxGeometry x="60" y="320" width="540" height="60" as="geometry"/>
                </mxCell>
                <mxCell id="GUaNuJlXd1SZs9sNp0NW-13" value="- отображает кнопку входа выхода&lt;br&gt;- приветствие&lt;br&gt;- переход в уведомления для авторизованного" style="shape=note;whiteSpace=wrap;html=1;backgroundOutline=1;darkOpacity=0.05;fillColor=#60a917;strokeColor=#2D7600;fontColor=#ffffff;" vertex="1" parent="GUaNuJlXd1SZs9sNp0NW-1">
                    <mxGeometry x="640" y="150" width="200" height="130" as="geometry"/>
                </mxCell>
                <mxCell id="GUaNuJlXd1SZs9sNp0NW-14" value="- умеет отображать Backdrop&lt;br&gt;" style="shape=note;whiteSpace=wrap;html=1;backgroundOutline=1;darkOpacity=0.05;" vertex="1" parent="GUaNuJlXd1SZs9sNp0NW-1">
                    <mxGeometry x="640" y="40" width="200" height="90" as="geometry"/>
                </mxCell>
                <mxCell id="GUaNuJlXd1SZs9sNp0NW-15" value="- умеет отображать Backdrop&lt;br&gt;- меняет вкладки&lt;br&gt;" style="shape=note;whiteSpace=wrap;html=1;backgroundOutline=1;darkOpacity=0.05;fillColor=#6a00ff;strokeColor=#3700CC;fontColor=#ffffff;" vertex="1" parent="GUaNuJlXd1SZs9sNp0NW-1">
                    <mxGeometry x="60" y="410" width="200" height="90" as="geometry"/>
                </mxCell>
            </root>
        </mxGraphModel>
    </diagram>
</mxfile>